<?xml version="1.0" standalone="no"?>
<!DOCTYPE svg PUBLIC "-//W3C//DTD SVG 20010904//EN"
 "http://www.w3.org/TR/2001/REC-SVG-20010904/DTD/svg10.dtd">
<svg version="1.0" xmlns="http://www.w3.org/2000/svg"
 width="512.000000pt" height="512.000000pt" viewBox="0 0 512.000000 512.000000"
 preserveAspectRatio="xMidYMid meet">
<metadata>
Created by potrace 1.14, written by Peter Selinger 2001-2017
</metadata>
<g transform="translate(0.000000,512.000000) scale(0.100000,-0.100000)"
fill="#000000" stroke="none">
<path d="M0 2560 l0 -2560 2560 0 2560 0 0 2560 0 2560 -2560 0 -2560 0 0
-2560z m2945 1875 c207 -32 420 -101 601 -194 111 -58 118 -56 -86 -26 -284
42 -637 51 -860 21 -685 -91 -1114 -441 -1316 -1075 -25 -80 -48 -151 -50
-158 -2 -8 -22 0 -54 22 -127 86 -301 87 -478 5 -34 -16 -62 -27 -62 -24 0 18
81 216 122 298 321 641 930 1064 1649 1145 114 13 411 5 534 -14z m274 -216
c72 -6 171 -17 219 -24 l87 -12 -195 -2 c-360 -3 -615 -58 -877 -192 -711
-362 -1034 -1147 -726 -1764 69 -138 203 -301 337 -412 l48 -40 -17 -32 c-107
-207 -389 -238 -549 -60 -111 123 -219 372 -278 641 -21 93 -23 128 -22 353 1
238 2 255 28 349 200 739 682 1135 1461 1199 98 8 364 6 484 -4z m14 -84
c-271 -70 -526 -216 -709 -407 -167 -174 -257 -352 -299 -592 -29 -169 -38
-409 -23 -651 17 -293 15 -442 -7 -530 -19 -75 -50 -145 -64 -145 -18 0 -132
93 -182 148 -231 258 -336 611 -284 955 61 406 331 780 722 1001 249 140 601
240 863 244 l75 1 -92 -24z m244 -608 c119 -62 222 -219 311 -477 81 -235 109
-424 98 -655 -10 -200 -20 -259 -72 -413 -159 -477 -447 -797 -862 -957 -243
-93 -499 -130 -857 -122 -205 5 -479 28 -493 42 -3 2 87 4 199 4 215 -1 351
13 498 51 477 122 865 418 1069 817 177 348 196 710 53 1034 -72 164 -213 345
-354 459 l-56 44 22 39 c30 54 118 132 169 151 30 11 70 15 133 13 74 -3 99
-8 142 -30z m-347 -314 c167 -156 291 -397 331 -642 16 -99 14 -293 -5 -394
-33 -175 -123 -381 -236 -540 -81 -113 -250 -275 -370 -355 -255 -170 -588
-282 -925 -311 -161 -14 -175 -13 -79 9 449 101 844 409 987 769 93 232 111
485 81 1157 -8 178 14 316 62 392 15 22 15 22 46 5 17 -10 65 -50 108 -90z
m919 -1160 c108 -31 229 -19 361 38 36 15 66 23 68 18 2 -5 -21 -69 -50 -142
-412 -1018 -1540 -1537 -2588 -1191 -97 32 -365 153 -356 161 1 2 59 -5 127
-16 219 -35 349 -45 579 -45 229 0 340 9 510 44 215 45 434 137 593 251 109
78 266 239 339 350 103 155 206 391 247 566 l13 52 50 -35 c28 -19 76 -42 107
-51z"/>
</g>
</svg>
